
    <svg width="1242" height="2688" viewBox="0 0 1242 2688" xmlns="http://www.w3.org/2000/svg">
      <!-- Background -->
      <rect width="1242" height="2688" fill="#FFFFFF" />
      
      <!-- Phone frame -->
      <rect x="124.2" y="134.4" width="993.6" height="2419.2000000000003" 
            fill="#1A1A1A" rx="40" ry="40" />
      
      <!-- Screen content -->
      <rect x="186.29999999999998" y="268.8" width="869.4" height="2150.4" 
            fill="#FFFFFF" rx="30" ry="30" />
      
      <!-- Status bar -->
      <rect x="186.29999999999998" y="268.8" width="869.4" height="134.4" 
            fill="#F5F5F5" rx="30" ry="30" />
      
      <!-- Time -->
      <text x="621" y="336" font-family="Arial" font-size="53.76" 
            fill="#000000" text-anchor="middle">9:41</text>
      
      <!-- Battery, WiFi, Signal icons -->
      <g transform="translate(931.5, 309.12)">
        <rect width="40.32" height="26.88" fill="#000000" rx="1" ry="1" />
        <rect x="53.76" width="40.32" height="26.88" fill="#000000" rx="1" ry="1" />
        <rect x="107.52" width="40.32" height="26.88" fill="#000000" rx="1" ry="1" />
      </g>
    
      <g transform="translate(248.4, 537.6)">
        <!-- Book icon -->
        <rect x="0" y="0" width="745.1999999999999" height="1075.2" fill="#7F39FB" rx="20" ry="20" />
        <rect x="621" y="134.4" width="124.2" height="940.8" fill="white" rx="2" ry="2" />
        <text x="372.59999999999997" y="537.6" font-family="Arial" font-size="268.8" 
              fill="white" text-anchor="middle">SR</text>
      </g>
      <text x="621" y="1612.8" font-family="Arial" font-size="134.4" 
            fill="#000000" text-anchor="middle">Scan documents instantly</text>
      <text x="621" y="1747.2" font-family="Arial" font-size="80.64" 
            fill="#666666" text-anchor="middle">Get AI-powered summaries and insights</text>
    </svg>
  